<svg width="59" height="26" xmlns="http://www.w3.org/2000/svg" xmlns:xlink="http://www.w3.org/1999/xlink"><defs><path id="a" d="M.039.025H15.26v6.831H.04z"/><path id="c" d="M0 .052h15.317V18.09H0z"/><path id="e" d="M.063.02h6.694v17.684H.063z"/><path id="g" d="M.013.072h5.965v5.855H.013z"/></defs><g fill="none" fill-rule="evenodd"><g transform="translate(8.151 .052)"><mask id="b" fill="#fff"><use xlink:href="#a"/></mask><path d="M3.484 6.856h8.331c1.903 0 3.445-1.53 3.445-3.416S13.718.025 11.815.025H3.484C1.58.025.039 1.554.039 3.44c0 1.887 1.542 3.416 3.445 3.416" fill="#FD0064" mask="url(#b)"/></g><path d="M22.87 3.458c0 1.642-1.31 2.927-2.982 2.927-1.672 0-2.982-1.285-2.982-2.927 0-1.641 1.31-2.927 2.982-2.927 1.673 0 2.983 1.286 2.983 2.927z" fill="#FDC500"/><g transform="translate(0 7.827)"><mask id="d" fill="#fff"><use xlink:href="#c"/></mask><path d="M9.618 6.696l-.394-.115c-1.148-.333-2.158-.626-2.515-.832.144-.05.439-.115 1.003-.115.73 0 1.594.128 2.442.363.165.043.328.09.488.138.52.151 1.058.308 1.612.308 1.292 0 2.601-.959 2.601-2.79 0-1.26-.758-2.234-2.13-2.744C11.607.483 9.623.052 7.712.052 3.22.052.319 2.335.319 5.87c0 3.606 2.92 4.766 5.912 5.647l.738.21c.782.222 1.655.47 1.967.67-.154.06-.502.146-1.224.146a8.163 8.163 0 01-2.602-.452 24.294 24.294 0 01-.468-.169c-.66-.241-1.282-.47-2.005-.47-1.278 0-2.637.942-2.637 2.686 0 .829.342 1.98 1.97 2.755 1.205.579 3.363 1.197 5.812 1.197 4.648 0 7.535-2.256 7.535-5.887 0-3.582-2.944-4.72-5.7-5.506" fill="#FD0064" mask="url(#d)"/></g><g transform="translate(16.613 8.211)"><mask id="f" fill="#fff"><use xlink:href="#e"/></mask><path d="M3.41.02C1.596.02.063 1.538.063 3.337V14.35c0 1.818 1.533 3.354 3.347 3.354a3.354 3.354 0 003.347-3.354V3.338c0-1.83-1.501-3.319-3.347-3.319" fill="#FD0064" mask="url(#f)"/></g><g transform="translate(53.022 19.988)"><mask id="h" fill="#fff"><use xlink:href="#g"/></mask><path d="M2.995.072C4.668.072 5.978 1.358 5.978 3c0 1.641-1.31 2.927-2.983 2.927C1.323 5.927.013 4.641.013 3c0-1.642 1.31-2.928 2.982-2.928" fill="#FDC500" mask="url(#h)"/></g><path d="M46.103 8.02c-2.095 0-3.768.674-5.197 2.107-1.075-1.35-2.777-2.108-4.81-2.108-1.71 0-3.165.586-4.417 1.785-.609-.955-1.661-1.573-2.821-1.573-1.815 0-3.347 1.552-3.347 3.388v10.943c0 1.818 1.532 3.353 3.347 3.353a3.354 3.354 0 003.347-3.353v-7.418c.342-.59.943-1.226 1.94-1.226.642 0 1.408.31 1.408 1.783v6.86a3.354 3.354 0 003.347 3.354c1.814 0 3.347-1.535 3.347-3.353v-7.449c.473-.793 1.113-1.195 1.904-1.195.643 0 1.409.315 1.409 1.818v6.826a3.354 3.354 0 003.346 3.353c1.815 0 3.347-1.535 3.347-3.353v-7.987c0-6.083-4.707-6.556-6.15-6.556" fill="#FD0064"/></g></svg>