<svg width="191" height="33" fill="none" xmlns="http://www.w3.org/2000/svg"><path d="M25.258 15.188c-.08-1.193-.4-2.386-1.042-3.42l-5.453-9.462c-.4-.716-.721-1.51-.882-2.306l-.24.398a7.489 7.489 0 000 7.554l4.41 7.554a7.489 7.489 0 010 7.554l-.24.398c-.161-.795-.482-1.59-.883-2.306l-4.009-6.918-2.566-4.453c-.4-.716-.722-1.511-.882-2.306l-.24.397c-1.364 2.306-1.364 5.169 0 7.555l4.41 7.554a7.488 7.488 0 010 7.554l-.24.398c-.161-.796-.482-1.59-.883-2.306l-5.533-9.463c-.721-1.272-1.042-2.704-1.042-4.135C4.089 16.539 0 19.8 0 23.537 0 28.785 7.858 33 17.56 33c9.703 0 17.56-4.215 17.56-9.463.081-3.578-3.928-6.838-9.862-8.349zM41.856 31.33c.08-1.352.241-2.226.642-3.34 1.844.875 4.25 1.273 6.014 1.273 3.047 0 4.81-.955 4.81-2.943 0-1.908-1.282-2.783-4.33-4.134l-1.683-.637c-3.127-1.351-5.212-3.1-5.212-6.52 0-3.737 2.646-6.123 7.938-6.123 2.165 0 4.17.318 6.014.954a12.383 12.383 0 01-.641 3.26c-1.764-.636-3.93-.954-5.453-.954-2.887 0-4.17 1.114-4.17 2.863 0 1.67 1.283 2.704 3.609 3.658l1.764.715c4.17 1.75 5.934 3.658 5.934 6.839 0 3.737-2.887 6.361-8.5 6.361-2.646 0-4.891-.397-6.736-1.272zm32.956-15.665v16.38h-3.367l-.16-1.987c-.963 1.431-2.326 2.385-4.651 2.385-4.33 0-7.297-3.18-7.297-8.667 0-5.725 3.127-9.065 9.22-9.065 2.406.08 4.411.318 6.255.954zm-3.608 12.643V18.051c-.722-.16-1.604-.16-2.646-.16-3.769 0-5.533 2.307-5.533 5.964 0 3.34 1.363 5.726 4.57 5.726 1.524-.08 2.647-.557 3.609-1.273zm22.211-7.236v10.974h-3.608V21.708c0-2.624-.882-3.816-4.49-3.816-.882 0-1.845.08-2.887.238v13.916h-3.608v-16.38c2.325-.558 4.89-.955 6.575-.955 6.094.08 8.018 2.385 8.018 6.361zm10.103 8.35c1.043 0 2.085-.16 2.807-.477a39.05 39.05 0 01-.401 3.021c-.962.398-2.085.557-3.047.557-3.528 0-5.773-1.59-5.773-5.566V9.7c1.122-.397 2.485-.556 3.608-.556v6.202h5.773c-.08 1.113-.16 2.147-.32 3.101h-5.453v8.032c0 2.067 1.042 2.942 2.806 2.942zm19.485-13.757v16.38h-3.367l-.161-1.987c-.962 1.431-2.325 2.385-4.65 2.385-4.33 0-7.297-3.18-7.297-8.667 0-5.725 3.127-9.065 9.221-9.065 2.405.08 4.33.318 6.254.954zm-3.688 12.643V18.051c-.722-.16-1.604-.16-2.646-.16-3.769 0-5.533 2.307-5.533 5.964 0 3.34 1.363 5.726 4.571 5.726 1.523-.08 2.726-.557 3.608-1.273zm22.291-7.236v10.974h-3.688V21.708c0-2.624-.882-3.816-4.491-3.816-.882 0-1.844.08-2.886.238v13.916h-3.609v-16.38c2.326-.558 4.892-.955 6.576-.955 6.094.08 8.098 2.385 8.098 6.361zm18.363-11.927v22.9h-3.368l-.161-2.067c-.962 1.511-2.325 2.465-4.731 2.465-4.329 0-7.296-3.18-7.296-8.667 0-5.725 3.127-9.065 9.221-9.065.962 0 1.844.08 2.726.238V9.542c1.123-.318 2.406-.397 3.609-.397zm-3.609 19.163V18.21c-.962-.16-1.924-.318-2.886-.318-3.609 0-5.293 2.226-5.293 5.963 0 3.34 1.364 5.726 4.571 5.726 1.443-.08 2.646-.557 3.608-1.273zm21.891-3.26h-11.627c.481 2.942 2.165 4.294 5.452 4.294 2.005 0 4.01-.397 5.774-1.272-.161.954-.321 2.226-.562 3.26-1.683.716-3.367 1.034-5.372 1.034-6.094 0-8.981-3.34-8.981-8.906 0-4.85 2.246-8.747 8.019-8.747 5.212 0 7.457 3.34 7.457 7.475 0 1.113 0 1.908-.16 2.862zm-11.627-3.021h8.179c0-2.704-1.444-4.294-3.929-4.294-2.646.079-4.01 1.51-4.25 4.293zM191 14.948c0 1.114-.16 2.386-.321 3.102-.882-.08-1.684-.16-2.726-.16-.882 0-1.764.08-2.646.16v13.995h-3.608v-16.38c1.523-.558 4.169-.955 6.174-.955 1.042.08 2.325.08 3.127.238z" fill="#EA1D25"/></svg>